<?xml version="1.0" encoding="UTF-8" standalone="no" ?>
<!DOCTYPE svg PUBLIC "-//W3C//DTD SVG 1.1//EN" "http://www.w3.org/Graphics/SVG/1.1/DTD/svg11.dtd">
<svg xmlns="http://www.w3.org/2000/svg" xmlns:xlink="http://www.w3.org/1999/xlink" version="1.1" width="250" height="250" viewBox="0 0 250 250" xml:space="preserve">
<desc>Created with Fabric.js 5.2.4</desc>
    <defs>
</defs>
    <g transform="matrix(1 0 0 1 125 125)"   >
<rect style="stroke: none; stroke-width: 1; stroke-dasharray: none; stroke-linecap: butt; stroke-dashoffset: 0; stroke-linejoin: miter; stroke-miterlimit: 4; fill: rgb(145,36,36); fill-rule: nonzero; opacity: 1; visibility: hidden;" vector-effect="non-scaling-stroke"  x="-125" y="-125" rx="0" ry="0" width="250" height="250" />
</g>
    <g transform="matrix(Infinity NaN NaN Infinity 0 0)" >
</g>
    <g transform="matrix(0.47 0 0 0.47 125 125)"  >
<g style=""   >
		<g transform="matrix(1 0 0 1 0 0)"  >
<rect style="stroke: none; stroke-width: 1; stroke-dasharray: none; stroke-linecap: butt; stroke-dashoffset: 0; stroke-linejoin: miter; stroke-miterlimit: 4; fill: rgb(255,255,255); fill-rule: nonzero; opacity: 1; visibility: hidden;" vector-effect="non-scaling-stroke"  x="-540" y="-540" rx="0" ry="0" width="1080" height="1080" />
</g>
    <g transform="matrix(1.96 0 0 1.96 -2.19 -0.9)"  >
<path style="stroke: none; stroke-width: 1; stroke-dasharray: none; stroke-linecap: butt; stroke-dashoffset: 0; stroke-linejoin: miter; stroke-miterlimit: 10; fill: rgb(26,162,74); fill-rule: evenodd; opacity: 1;" vector-effect="non-scaling-stroke"  transform=" translate(-274.02, -234.68)" d="M 277.96941 274.31867 C 276.66681 274.00288 276.15366 273.4108 275.75892999999996 272.70028 C 274.06159999999994 269.14772 271.61427999999995 265.98990000000003 269.44327 262.71365000000003 C 268.49592 261.37157 267.74593999999996 260.02949 266.95648 258.68742000000003 C 266.32492 257.62165000000005 265.96966 256.55588000000006 265.41704 255.45065000000002 C 264.94336999999996 254.38488000000004 264.43021999999996 253.35859000000002 263.95653999999996 252.25335 C 263.64074999999997 251.81915 263.40391999999997 251.38495 263.24602999999996 250.8718 C 262.33815999999996 247.75345000000002 261.39081 244.59562 260.48292999999995 241.43779 C 260.32503999999994 241.00359 260.32503999999994 240.56939 260.0882 240.21413 C 259.25926999999996 237.9247 258.94349 235.51686 258.62769999999995 233.18796 C 258.23296999999997 229.95119 258.03559999999993 226.75389 258.03559999999993 223.47764 C 258.03559999999993 222.8066 258.1145399999999 222.17504 258.1145399999999 221.50400000000002 C 258.23295999999993 220.00403000000003 258.5487399999999 218.50407 258.5487399999999 217.04357000000002 C 258.6276799999999 213.68837000000002 259.3381999999999 210.41213000000002 259.7723999999999 207.13588000000001 C 259.8513399999999 206.50432 259.9302899999999 205.99117 259.9302899999999 205.39907000000002 C 260.2460799999999 201.64915000000002 261.1144799999999 197.97817000000003 262.3381399999999 194.38615000000001 C 263.1670699999999 192.05725 263.9565299999999 189.80730000000003 264.6670399999999 187.47840000000002 C 265.89069999999987 183.37322000000003 267.90380999999985 179.50488 269.9958799999999 175.63655000000003 C 271.14058999999986 173.42607000000004 272.2458299999999 171.29454000000004 273.3115999999999 169.08406000000002 C 274.6536799999999 166.39990000000003 275.9957599999999 163.59734000000003 277.3772999999999 160.79476000000003 C 277.69308999999987 160.28161000000003 277.9693999999999 159.80794000000003 278.3641199999999 159.33426000000003 C 278.4430599999999 159.13689000000002 278.9167399999999 158.97901000000002 279.1930499999999 159.01847000000004 C 279.4298899999999 159.09741000000002 279.8246099999999 159.37372000000005 279.9035599999999 159.61057000000002 C 279.9824999999999 162.25525000000002 281.9956199999999 164.26837000000003 283.1403299999999 166.55779 C 284.3639899999999 168.96564 285.1534499999999 171.53137 286.0218499999999 174.13658 C 286.6928899999999 176.54443 287.4033999999999 178.99174000000002 288.23232999999993 181.43906 C 288.7849499999999 183.25481000000002 289.10072999999994 185.07056 289.3375699999999 186.92578 C 289.7322999999999 189.53099 290.12702999999993 192.09673 290.1664999999999 194.70193 C 290.19373999999993 195.41994 290.23004999999995 196.14111 290.2663599999999 196.86504 C 290.4428099999999 200.35997 290.62200999999993 203.91331 289.7717699999999 207.41218 C 289.2586199999999 209.70161000000002 289.2586199999999 212.03050000000002 289.0217899999999 214.31993 C 288.6270599999999 217.35934 288.2323299999999 220.35928 287.9954999999999 223.35921 C 287.5612999999999 228.92488 286.3771099999999 234.37213 285.4692399999999 239.85886 C 284.6797799999999 244.79297 283.6140199999999 249.64812999999998 282.8245599999999 254.62171 C 282.3114099999999 258.17427000000004 281.5219599999999 261.7663 280.7719699999999 265.23990000000003 C 280.29829999999987 267.68721000000005 279.5877799999999 270.05558 278.8377999999999 272.46343 C 278.6799099999999 273.05553000000003 278.2851799999999 273.60814 277.9693999999999 274.31865 z M 204.51043 218.42513 C 207.43142 219.21459 210.27346 220.2014 212.68131000000002 221.93821 C 213.23393000000002 222.25399 213.82602000000003 222.49081999999999 214.37864000000002 222.80661 C 215.01020000000003 223.08292 215.6023 223.31976 216.07597 223.63554000000002 C 218.99696 225.53023000000002 221.91795000000002 227.38546000000002 224.87841 229.24068000000003 C 225.15472 229.43804000000003 225.47051 229.55646000000002 225.70734000000002 229.71435000000002 C 230.04935 232.31956000000002 234.43084000000002 234.96424000000002 238.22023000000002 238.27996000000002 C 238.89127000000002 238.95100000000002 239.83862000000002 239.50362 240.5886 240.13518000000002 C 244.69378 242.97723000000002 248.20686 246.33242 251.68047 249.64814 C 255.62775000000002 253.31911000000002 259.21979 257.14798 262.61445000000003 261.21368 C 263.91706000000005 262.75312 265.4565 264.17415 266.75910000000005 265.71359 C 267.66697000000005 266.77936 268.61432 267.92407000000003 269.36431000000005 269.14773 C 270.82481000000007 271.51610000000005 272.12741000000005 273.88447 274.06158000000005 275.97653 C 275.28524000000004 277.27913 274.96945000000005 278.66069000000005 274.21947000000006 280.08171000000004 C 274.06158000000005 280.55539000000005 273.5879100000001 280.79222000000004 272.95634000000007 280.63433000000003 C 269.60114000000004 279.84487 266.20648000000006 279.17383 262.89076000000006 278.22648000000004 C 260.64081000000004 277.59492000000006 258.54875000000004 276.45020000000005 256.3382700000001 275.70022000000006 C 252.31203000000008 274.31867000000005 248.6805400000001 272.26608000000004 244.97009000000008 270.41086000000007 C 243.35170000000008 269.70035000000007 241.97016000000008 268.5951100000001 240.50966000000008 267.6872400000001 C 239.12811000000008 266.7793700000001 237.5886700000001 266.02938000000006 236.36501000000007 265.0425600000001 C 231.11511000000007 260.8979100000001 226.18101000000007 256.5558900000001 221.79952000000006 251.8191500000001 C 221.32584000000006 251.3454700000001 220.93111000000005 250.8323300000001 220.45744000000005 250.4376000000001 C 218.01013000000006 248.7402700000001 216.58911000000006 246.3324200000001 214.97072000000006 244.12194000000008 C 213.82601000000005 242.4246100000001 212.56287000000006 240.80622000000008 211.41816000000006 239.14836000000008 C 210.82607000000004 238.24049000000008 210.31292000000005 237.25367000000008 209.76030000000006 236.2668400000001 C 208.73400000000007 234.49056000000007 207.74718000000007 232.6748100000001 206.68141000000006 230.85906000000008 C 204.90514000000005 227.7012300000001 203.28675000000007 224.4644600000001 202.37887000000006 220.99085000000008 C 202.18150000000006 220.24086000000008 202.06308000000007 219.4908800000001 201.82625000000007 218.70142000000007 C 202.73412000000008 218.18827000000007 203.6025300000001 218.18827000000007 204.51041000000006 218.42511000000007 z M 279.66672 279.76594 C 279.23252 279.60805 278.99568 279.21332 279.15357 278.70017 C 280.53512 275.14761 281.75878 271.55558 283.25875 268.0425 C 283.89031 266.582 284.7982 265.16098 285.6666 263.77943 C 287.64024 260.74002 289.61388 257.66113 291.70595000000003 254.66119999999998 C 294.62694000000005 250.39812999999998 297.62688 246.13505999999998 301.88995000000006 242.74039999999997 C 302.28468000000004 242.38514999999995 302.60046000000006 241.95093999999997 302.95572000000004 241.59568999999996 C 303.94254000000006 240.60886999999997 304.96884000000006 239.62204999999997 306.03461000000004 238.71416999999997 C 307.17932 237.68787999999998 308.36351 236.54316999999998 309.66611000000006 235.55633999999998 C 311.20556000000005 234.37214999999998 312.82394000000005 233.18796999999998 314.4423300000001 232.12219999999996 C 316.21861000000007 230.93800999999996 318.0738300000001 229.87224999999995 319.8501100000001 228.68805999999995 C 323.1658300000001 226.43810999999994 326.9552200000001 225.01707999999996 330.5472500000001 223.35921999999994 C 332.7972000000001 222.37239999999994 335.1261100000001 221.58293999999992 337.57342000000006 221.18820999999994 C 338.63919000000004 220.99084999999994 339.82337000000007 220.83295999999993 340.57335000000006 219.92507999999995 C 340.96808000000004 219.45139999999995 341.95490000000007 219.80665999999997 342.1127900000001 220.43822999999995 L 342.13292000000007 220.49743999999995 C 342.2039700000001 220.70821999999995 342.2639700000001 220.88584999999995 342.1917400000001 221.03031999999996 C 341.7970100000001 222.84606999999997 341.5601800000001 224.66181999999995 340.9680800000001 226.39862999999997 C 340.4944000000001 227.97753999999998 339.7444200000001 229.51697999999996 338.9549600000001 231.01694999999998 C 338.16550000000007 232.55639999999997 337.3365700000001 233.97741999999997 336.7050100000001 235.55632999999997 C 335.9945000000001 237.41154999999998 334.8497900000001 239.10888999999997 333.8629700000001 240.84568999999996 C 332.1656300000001 243.84561999999997 330.31041000000005 246.68766999999997 328.1394000000001 249.41129999999995 C 327.34994000000006 250.35864999999995 326.9157400000001 251.50336999999996 326.0473400000001 252.37176999999994 C 323.6394900000001 255.09539999999993 321.2316600000001 257.81902999999994 318.54750000000007 260.30580999999995 C 315.9028200000001 262.71365999999995 312.9028800000001 264.84517999999997 310.1397800000001 267.01618999999994 C 309.82400000000007 267.29249999999996 309.5082200000001 267.4503899999999 309.11349000000007 267.60828999999995 C 307.1398500000001 268.47668999999996 305.44252000000006 269.77928999999995 303.50835000000006 270.72664 C 302.2057500000001 271.47661999999997 300.86368000000004 272.22659999999996 299.48212000000007 272.8187 C 298.10057000000006 273.33185 296.9558600000001 273.92393999999996 295.89009000000004 274.7134 C 295.73220000000003 274.75287 295.57431 274.87129 295.41642 274.95023999999995 C 292.85068 275.8975899999999 290.40337 277.04229999999995 287.75869 277.95016999999996 C 285.7061 278.58172999999994 283.61404 279.25276999999994 281.67987 280.47642999999994 C 280.89041 280.2001199999999 280.29832 280.04222999999996 279.66675 279.76591999999994 z M 292.25858 289.59466 C 289.37706 289.08151 286.61396 288.05521 283.92981 287.02891999999997 C 283.53508 286.83155 283.14034999999996 286.67366 282.86404 286.43681999999995 C 281.67985 285.56841999999995 281.52196 284.46317999999997 282.46931 283.39741 C 284.56137 281.30535 286.69291 279.4896 289.81126 278.77909 C 292.14016 278.22648 294.35064 277.39754 296.67954000000003 276.84492 C 300.23210000000006 275.97651 303.78465000000006 275.66073 307.37668 275.50284 C 310.96871000000004 275.34495 314.67916 275.42389 318.23172 275.97651 C 319.13959 276.1344 320.008 276.33176000000003 320.91588 276.52913 C 321.07377 276.52913 321.23166000000003 276.64755 321.38955000000004 276.68702 C 325.41579 277.43701000000004 329.1657 278.97645 333.03404000000006 280.16063 C 335.2050500000001 280.71325 335.4024100000001 281.93691 333.70508000000007 283.23952 C 330.78409000000005 285.56842 327.31047000000007 287.22627 323.79739000000006 288.72624 C 320.6000900000001 289.98938000000004 317.2843700000001 290.46305 314.04760000000005 291.13409 C 311.75817000000006 291.60777 309.50823 291.8446 307.73194000000007 291.72619000000003 C 303.62676000000005 291.72619000000003 300.27157000000005 291.37094 296.8769000000001 290.54200000000003 C 295.41640000000007 290.14727000000005 293.7980100000001 289.83149000000003 292.2585800000001 289.59465000000006 z M 274.53526 288.0947 C 275.67996999999997 288.33153999999996 276.27207 288.9631 276.66679999999997 289.94991999999996 C 278.20624 294.44982999999996 277.81150999999994 298.67341999999996 275.20629999999994 302.73911999999996 C 274.29842999999994 304.23909 273.11423999999994 305.66011 272.04846999999995 307.08113 C 270.66691999999995 308.8574 268.65380999999996 309.76529 266.28543999999994 310.23895999999996 C 265.37164999999993 310.49593 264.43692999999996 310.23659 263.52628999999996 309.98357 C 263.17853999999994 309.88686 262.83432999999997 309.79134 262.49604999999997 309.72580999999997 C 262.18026 309.64685999999995 261.86449 309.09423999999996 261.70658999999995 308.73898999999994 C 261.31185999999997 307.79164 261.39079999999996 306.84428999999994 261.70658999999995 305.93641999999994 C 262.25920999999994 304.43645999999995 262.69341 302.89700999999997 263.48286999999993 301.47598999999997 C 264.6275799999999 299.30499 265.41703999999993 296.93661999999995 267.1933199999999 295.04191999999995 C 268.4169799999999 293.66036999999994 269.8774699999999 292.31829999999997 271.2590199999999 291.01568999999995 C 271.78478999999993 290.56492 272.2750499999999 290.22149999999993 272.3891299999999 289.54256999999996 C 271.2242799999999 290.12834999999995 270.0969399999999 290.78833 268.9695999999999 291.41041999999993 C 267.9433099999999 291.9630399999999 266.9564899999999 292.55513999999994 265.9696699999999 292.91038999999995 C 263.7197199999999 293.73931999999996 261.5092399999999 294.44982999999996 259.2592899999999 295.16033999999996 C 259.02244999999994 295.23929 258.7856099999999 295.27876999999995 258.5487799999999 295.35770999999994 C 256.41723999999994 296.4234799999999 254.1672899999999 296.73925999999994 251.6804999999999 296.9760999999999 C 249.6129099999999 297.1829399999999 247.6953199999999 296.90820999999994 245.7181199999999 296.6251899999999 C 245.4307499999999 296.5837399999999 245.14220999999992 296.54268999999994 244.8516899999999 296.5024299999999 C 244.2201299999999 296.4234899999999 243.78591999999992 296.1866399999999 243.1543599999999 296.1076999999999 C 238.57550999999992 295.7524399999999 234.58874999999992 294.29194999999993 230.4046299999999 292.9103999999999 C 227.95730999999992 292.0419999999999 225.54945999999993 290.93675999999994 223.1021499999999 290.1472999999999 C 222.78636999999992 290.0683499999999 222.4705899999999 289.91045999999994 222.2337499999999 289.8315099999999 C 221.0100899999999 289.1209999999999 220.9311499999999 287.69996999999995 221.9969099999999 286.87103999999994 C 222.6284799999999 286.3973699999999 223.3784599999999 286.0815799999999 224.1679199999999 285.80526999999995 C 225.7073599999999 285.09475999999995 227.2468099999999 284.38424999999995 228.7862399999999 283.79214999999994 C 231.1151399999999 283.0026899999999 233.40455999999992 282.2132399999999 235.81240999999991 281.70008999999993 C 239.28601999999992 281.0290499999999 242.83856999999992 280.55537999999996 246.3121899999999 280.0027599999999 C 247.1411099999999 279.8843399999999 247.9305699999999 279.76591999999994 248.7594999999999 279.6080299999999 C 249.31211999999988 279.48959999999994 249.82526999999988 279.41065999999995 250.45682999999988 279.41065999999995 C 253.14098999999987 279.52907999999996 255.94355999999988 279.56854999999996 258.5487699999999 279.88433 C 260.9566199999999 280.16062999999997 263.2460399999999 280.71324999999996 265.57493999999986 281.14745999999997 C 266.5617599999999 281.34482999999994 267.58805999999987 281.85796999999997 268.65382999999986 281.97639 C 271.06167999999985 282.09481 272.52216999999985 283.43688 274.06160999999986 284.81843 C 274.49580999999984 285.21315999999996 274.8905399999999 285.84472 275.44315999999986 286.43681999999995 C 275.12973999999986 287.02457 274.8163299999999 287.57323999999994 274.50291999999985 288.12191999999993 z M 273.98265 288.60784 L 273.90371 288.68678 L 273.98265 288.6473 C 274.21948999999995 288.44993999999997 274.37737999999996 288.33151999999995 274.4958 288.13415 L 274.50291 288.12190999999996 C 274.28382999999997 288.30664999999993 274.13304999999997 288.45742999999993 273.98266 288.60781999999995 z M 272.44321 289.51571 L 272.56163000000004 289.43677 L 272.40374 289.43677 L 272.38914000000005 289.54256000000004 z M 281.71934 289.08151 C 283.33772 289.51570999999996 285.114 289.87097 286.81134 290.30517 C 287.83763 290.66042 288.86393 291.17357 289.69286 291.84461 C 291.15336 292.94984999999997 292.69279 293.8972 294.19277 294.96296 C 296.24536 296.34451 297.70585 298.23921 298.89004 300.21285 C 299.5216 301.19967 299.87686 302.34439 300.35054 303.41015 C 300.58738 304.08119 300.58738 304.7917 300.74527 305.54168999999996 C 299.44267 306.05483999999996 298.21901 305.93641999999994 296.95588 305.66011 C 294.78486999999996 305.14696 292.92964 304.16013999999996 290.99548 303.01543 C 287.0482 300.76547999999997 284.36404 297.6866 282.27198 294.09457 C 281.67987999999997 293.06827 281.20621 292.00251 279.46941 291.41040999999996 C 280.61411999999996 290.62094999999994 280.53517999999997 289.55519 281.71936 289.08151 z M 224.61027 184.63712 C 231.18223 178.06512 238.72963000000001 172.97669000000002 247.25246 169.37184000000002 C 254.79978000000003 166.17958000000002 262.65267 164.35233000000002 270.81112 163.89006000000003 L 270.57765 164.36791000000002 L 269.91887 165.70913000000002 L 269.23175000000003 167.09302000000002 L 268.68373 168.21623000000002 L 268.02302000000003 169.54023000000004 L 267.98565 169.61370000000002 C 261.57594 170.28371 255.37642000000002 171.88535000000002 249.38708000000003 174.41862000000003 C 241.52048000000002 177.74592000000004 234.55311000000003 182.44365000000002 228.48495000000003 188.51181000000003 C 222.41679000000002 194.57997000000003 217.71906 201.54735000000002 214.39176000000003 209.41394000000003 C 213.43970000000004 211.66484000000003 212.61924000000005 213.94542 211.93035000000003 216.25570000000002 L 211.91454000000004 216.24800000000002 L 210.53072000000003 215.63623 L 210.27758000000003 215.53332 L 208.85931000000002 215.00584 L 208.65833000000003 214.93642 L 207.21687000000003 214.47598 L 207.07340000000002 214.43271 L 206.78084 214.34978999999998 C 207.50572000000003 211.9639 208.36043 209.60707 209.345 207.27930999999998 C 212.94985 198.75646999999998 218.03827 191.20907 224.61028 184.63711999999998 z M 302.71041 169.37184 C 311.23312000000004 172.97669 318.78043 178.06511 325.35234 184.63711999999998 C 331.92425000000003 191.20898999999997 337.01268000000005 198.75638999999998 340.61762000000004 207.27930999999998 C 341.84051000000005 210.17047 342.86309000000006 213.10645999999997 343.68535 216.08729 L 343.25725000000006 215.83038 L 342.81162000000006 215.59539999999998 L 342.34216000000004 215.41135999999997 L 341.85532000000006 215.28043999999997 L 341.3568900000001 215.20425999999998 L 340.8533100000001 215.18384999999998 L 340.35037000000005 215.21932999999999 L 339.85451000000006 215.31038999999998 L 339.37218000000007 215.45579999999998 L 337.9473500000001 215.97303999999997 C 337.2762400000001 213.75937999999996 336.4840700000001 211.57300999999998 335.57083000000006 209.41395999999997 C 332.24366000000003 201.54740999999999 327.54612000000003 194.58002999999997 321.4782200000001 188.51182999999997 C 315.4098900000001 182.44366999999997 308.44236000000006 177.74593999999996 300.5756400000001 174.41863999999998 C 297.0348000000001 172.92094999999998 293.4204900000001 171.74887999999999 289.73271000000005 170.90246 L 289.66874000000007 170.70952 L 289.1793200000001 169.27759 L 289.1439000000001 169.17822 L 288.6210000000001 167.75808 L 288.5598200000001 167.60108 L 287.9847600000001 166.20135 L 287.8991100000001 166.0061 L 287.35110000000014 164.83211 C 292.6041500000001 165.74953 297.72392000000013 167.26278 302.71039000000013 169.37187 z M 346.21694 235.00841 C 346.21694 244.6688 344.3505 253.91168 340.61763 262.73706 C 338.69111000000004 267.29222999999996 336.3407 271.56881999999996 333.56639 275.56683999999996 L 333.02331000000004 275.39491 L 331.60658000000006 274.92417 L 330.15186000000006 274.43347 L 328.65464000000003 273.93697 L 328.11935000000005 273.76761999999997 C 331.09460000000007 269.70176999999995 333.57843 265.31354999999996 335.57086000000004 260.60295999999994 C 338.65559 253.31001999999995 340.35900000000004 245.70562999999993 340.68109000000004 237.78977999999995 L 340.81405000000007 237.48898999999994 L 343.7048300000001 231.69584999999995 L 343.76794000000007 231.56382999999994 L 344.39967000000007 230.18895999999995 L 344.51430000000005 229.91655999999995 L 345.0545900000001 228.50369999999995 L 345.1408800000001 228.25705999999994 L 345.2941400000001 227.77536999999995 L 345.3302000000001 227.65816999999996 L 345.7049400000001 226.35896999999994 C 346.0462800000001 229.20392999999993 346.21695000000005 232.08707999999993 346.21695000000005 235.00841999999994 z M 209.345 262.73706 C 205.61221 253.91168 203.74582 244.66879999999998 203.74582 235.00841 C 203.74582 234.96854 203.74585000000002 234.92867999999999 203.74592 234.88882999999998 L 206.57498 239.88519 L 207.33956 241.19116 L 207.43280000000001 241.34314 L 207.59365000000003 241.59493 L 207.71372000000002 241.77266 L 208.60045000000002 243.02454 L 209.95857000000004 244.9232 C 210.76725000000005 250.30065000000002 212.24499000000003 255.52724 214.39179000000004 260.60296 C 217.13823000000005 267.09599 220.81837000000004 272.97653 225.43222000000003 278.24456 L 224.16806000000003 280.81327 L 221.44699000000003 282.01135 C 216.38286000000002 276.26402 212.34886000000003 269.83925999999997 209.34500000000003 262.73707 z" stroke-linecap="round" />
</g>
    <g transform="matrix(1.96 0 0 1.96 -184.24 -57.93)"  >
<path style="stroke: none; stroke-width: 1; stroke-dasharray: none; stroke-linecap: butt; stroke-dashoffset: 0; stroke-linejoin: miter; stroke-miterlimit: 10; fill: rgb(26,162,74); fill-rule: nonzero; opacity: 1;" vector-effect="non-scaling-stroke"  transform=" translate(-181.2, -205.53)" d="M 193.41111 206.50355 C 192.42114 209.87323999999998 190.38419000000002 212.39472999999998 187.30026 214.06803 C 184.22480000000002 215.75683999999998 181.00223 216.10625 177.63253 215.11628 C 174.27483 214.12983 171.75334 212.09287999999998 170.06805 209.00543 C 168.37924 205.92997 168.02983 202.70739999999998 169.0198 199.33769999999998 C 169.52712 197.61087999999998 170.36705 196.05993999999998 171.53961 194.68489 L 170.47834 194.3731 C 169.36222 195.77776 168.55226 197.33750999999998 168.04847 199.05234 C 166.98099000000002 202.68585 167.35940000000002 206.16446 169.18371000000002 209.48815 C 170.9925 212.82030999999998 173.71365000000003 215.02013 177.34716000000003 216.08760999999998 C 180.98067000000003 217.15508999999997 184.45928000000004 216.77667999999997 187.78297000000003 214.95236999999997 C 191.11513000000002 213.14358 193.31495000000004 210.42242999999996 194.38243000000003 206.78891999999996 C 194.88622000000004 205.07408999999996 195.04862000000003 203.32410999999996 194.86963000000003 201.53894999999997 L 193.82634000000002 201.23244999999997 C 194.05682000000002 203.01969999999997 193.91841000000002 204.77673999999996 193.41109000000003 206.50354999999996 z" stroke-linecap="round" />
</g>
    <g transform="matrix(1.96 0 0 1.96 -160.85 -110.02)"  >
<path style="stroke: none; stroke-width: 1; stroke-dasharray: none; stroke-linecap: butt; stroke-dashoffset: 0; stroke-linejoin: miter; stroke-miterlimit: 10; fill: rgb(26,162,74); fill-rule: nonzero; opacity: 1;" vector-effect="non-scaling-stroke"  transform=" translate(-193.1, -179)" d="M 204.47645 186.81293 C 204.38468 186.94701 204.28775 187.07756999999998 204.18567 187.20459 C 203.17078999999998 188.55465 201.93445 189.58652999999998 200.47664999999998 190.30025 C 198.82013999999998 191.10514 197.20904 191.31257 195.64335999999997 190.92255 L 195.87884999999997 189.9478 C 197.24745999999996 190.29382 198.65903999999998 190.10129 200.11357999999998 189.37021000000001 C 201.38678 188.72705000000002 202.47787999999997 187.80780000000001 203.38687 186.61245000000002 C 204.72267 184.81563000000003 205.31579 182.94215000000003 205.16621999999998 180.99202000000002 C 205.03563999999997 179.19119000000003 204.33819999999997 177.82026000000002 203.07390999999998 176.87922000000003 C 200.7413 175.13128000000003 197.55406 175.94871000000003 193.51220999999998 179.33152000000004 C 191.33708 181.15971000000005 189.33685999999997 182.28975000000003 187.51154999999997 182.72165000000004 C 185.67592999999997 183.14648000000003 184.09340999999998 182.85852000000003 182.76397999999998 181.85776000000004 C 180.81624999999997 180.38838000000004 179.90470999999997 178.52257000000003 180.02934999999997 176.26030000000003 C 180.12135999999995 174.39978000000002 180.86322999999996 172.55238000000003 182.25495999999995 170.71811000000002 C 183.89375999999996 168.52284000000003 185.89752999999996 167.24377 188.26626999999996 166.88090000000003 L 188.41514999999995 167.89154000000002 C 186.32437999999996 168.20233000000002 184.53724999999994 169.3419 183.05375999999995 171.31026000000003 C 181.79560999999995 172.99363000000002 181.11836999999994 174.65807000000004 181.02204999999995 176.30360000000002 C 180.92242999999996 178.21949 181.70397999999994 179.79946 183.36671999999996 181.04349000000002 C 185.66838999999996 182.77025000000003 188.84014999999997 181.94223000000002 192.88200999999995 178.55943000000002 C 195.05713999999995 176.73124 197.06251999999995 175.60473000000002 198.89813999999996 175.17989000000003 C 200.73375999999996 174.75506000000004 202.32659999999996 175.05008000000004 203.67665999999997 176.06496000000004 C 205.17436999999998 177.19604000000004 206.00396999999998 178.81646000000003 206.16545999999997 180.92621000000005 C 206.32423999999997 182.97352000000006 205.76123999999996 184.93577000000005 204.47645999999997 186.81295000000006 z" stroke-linecap="round" />
</g>
    <g transform="matrix(1.96 0 0 1.96 -114.25 -158.44)"  >
<path style="stroke: none; stroke-width: 1; stroke-dasharray: none; stroke-linecap: butt; stroke-dashoffset: 0; stroke-linejoin: miter; stroke-miterlimit: 10; fill: rgb(26,162,74); fill-rule: nonzero; opacity: 1;" vector-effect="non-scaling-stroke"  transform=" translate(-216.84, -154.34)" d="M 225.54896 164.13472 C 222.77276 166.28591 219.64485 167.13636 216.16523 166.68607999999998 C 212.68339 166.25333999999998 209.86687 164.64885999999998 207.71569 161.87266999999997 C 205.57216 159.10634999999996 204.72171 155.97843999999998 205.16433 152.48893999999996 C 205.59707 149.00709999999995 207.20155 146.19057999999995 209.97774 144.03939999999994 C 211.40042000000003 142.93700999999993 212.98965 142.17200999999994 214.74545 141.74438999999995 L 214.06794 140.87003999999996 C 212.34054 141.35470999999995 210.77044999999998 142.14440999999997 209.35765 143.23914999999997 C 206.3641 145.55875999999998 204.63316 148.59975999999997 204.16482000000002 152.36216999999996 C 203.67895000000001 156.12234999999995 204.59582000000003 159.49921999999995 206.91543000000001 162.49276999999995 C 209.23504000000003 165.48631999999995 212.27604000000002 167.21725999999995 216.03845 167.68559999999994 C 219.79863 168.17146999999994 223.1755 167.25459999999993 226.16905 164.93498999999994 C 227.58185 163.84025999999994 228.73855 162.51704999999995 229.63916 160.96536999999995 L 228.97313 160.10583999999994 C 228.11303 161.68937999999994 226.97163 163.03234999999995 225.54896 164.13473999999994 z" stroke-linecap="round" />
</g>
    <g transform="matrix(1.96 0 0 1.96 -29.4 -193.21)"  >
<path style="stroke: none; stroke-width: 1; stroke-dasharray: none; stroke-linecap: butt; stroke-dashoffset: 0; stroke-linejoin: miter; stroke-miterlimit: 10; fill: rgb(26,162,74); fill-rule: nonzero; opacity: 1;" vector-effect="non-scaling-stroke"  transform=" translate(-260.03, -136.64)" d="M 253.14693 124.20742 L 256.72226 150.89092 L 257.72568 150.75647 L 255.99777 137.86068 L 266.16203 136.49877 L 266.03007 135.51393000000002 L 255.86581 136.87584 L 254.28480000000002 125.07638000000001 L 266.92044000000004 123.38333000000002 L 266.78599 122.37991000000001 z" stroke-linecap="round" />
</g>
    <g transform="matrix(1.96 0 0 1.96 16.9 -194.67)"  >
<path style="stroke: none; stroke-width: 1; stroke-dasharray: none; stroke-linecap: butt; stroke-dashoffset: 0; stroke-linejoin: miter; stroke-miterlimit: 10; fill: rgb(26,162,74); fill-rule: nonzero; opacity: 1;" vector-effect="non-scaling-stroke"  transform=" translate(-283.61, -135.89)" d="M 285.26972 122.52166 L 284.26106 122.43487 L 281.95322 149.25773 L 282.96188 149.34452000000002 z" stroke-linecap="round" />
</g>
    <g transform="matrix(1.96 0 0 1.96 64.5 -183.6)"  >
<path style="stroke: none; stroke-width: 1; stroke-dasharray: none; stroke-linecap: butt; stroke-dashoffset: 0; stroke-linejoin: miter; stroke-miterlimit: 10; fill: rgb(26,162,74); fill-rule: nonzero; opacity: 1;" vector-effect="non-scaling-stroke"  transform=" translate(-307.87, -141.52)" d="M 319.91109 131.48883 L 311.31213 155.94974000000002 L 305.28407000000004 126.34687000000002 L 303.79838000000007 125.82459000000003 L 294.8698800000001 151.22290000000004 L 295.82497000000006 151.55865000000003 L 304.4177200000001 127.11543000000003 L 310.4343100000001 156.69440000000003 L 311.9376900000001 157.22290000000004 L 320.8661900000001 131.82459000000003 z" stroke-linecap="round" />
</g>
    <g transform="matrix(1.96 0 0 1.96 116.97 -156.45)"  >
<path style="stroke: none; stroke-width: 1; stroke-dasharray: none; stroke-linecap: butt; stroke-dashoffset: 0; stroke-linejoin: miter; stroke-miterlimit: 10; fill: rgb(26,162,74); fill-rule: nonzero; opacity: 1;" vector-effect="non-scaling-stroke"  transform=" translate(-334.6, -155.35)" d="M 322.63843 162.2032 L 338.31442000000004 142.86067 L 342.36353 146.14224 C 345.02410000000003 148.29847999999998 346.53778 151.08575 346.90457000000004 154.50404999999998 C 347.26349000000005 157.93206999999998 346.3609 160.98121999999998 344.19680000000005 163.65149999999997 C 342.03270000000003 166.32177999999996 339.23663000000005 167.83637999999996 335.8086200000001 168.19530999999998 C 332.3884700000001 168.54451999999998 329.3481100000001 167.64100999999997 326.68754000000007 165.48477999999997 z M 338.16532 141.43671 L 321.21448 162.35228 L 326.05010999999996 166.27128000000002 C 328.92429999999996 168.60064000000003 332.21603999999996 169.57114 335.92533 169.18276000000003 C 339.61704 168.79623000000004 342.63151 167.16101000000003 344.96875 164.27711000000002 C 347.30598 161.39321 348.28133 158.10540000000003 347.8948 154.41369000000003 C 347.50642999999997 150.70440000000002 345.87514 147.68507000000002 343.00095 145.35571000000004 z" stroke-linecap="round" />
</g>
    <g transform="matrix(1.96 0 0 1.96 163.31 -106.32)"  >
<path style="stroke: none; stroke-width: 1; stroke-dasharray: none; stroke-linecap: butt; stroke-dashoffset: 0; stroke-linejoin: miter; stroke-miterlimit: 10; fill: rgb(26,162,74); fill-rule: nonzero; opacity: 1;" vector-effect="non-scaling-stroke"  transform=" translate(-358.2, -180.87)" d="M 365.71984 167.76068 L 343.16249999999997 182.4562 L 350.674 193.98621 L 351.52225999999996 193.43359 L 344.56337999999994 182.75184000000002 L 354.6167899999999 176.2023 L 360.2145999999999 184.79483000000002 L 361.04714999999993 184.25245 L 355.44933999999995 175.65992 L 365.42420999999996 169.16155 L 372.38309 179.8433 L 373.23134999999996 179.29068 z" stroke-linecap="round" />
</g>
    <g transform="matrix(1.96 0 0 1.96 185.49 -53.18)"  >
<path style="stroke: none; stroke-width: 1; stroke-dasharray: none; stroke-linecap: butt; stroke-dashoffset: 0; stroke-linejoin: miter; stroke-miterlimit: 10; fill: rgb(26,162,74); fill-rule: nonzero; opacity: 1;" vector-effect="non-scaling-stroke"  transform=" translate(-369.48, -207.94)" d="M 380.30791 197.35741 L 382.61201 205.49271 C 383.06159 207.08008999999998 382.88126 208.59904999999998 382.07101 210.04961 C 381.26076 211.50017 380.05594 212.45194 378.45654 212.90493 C 376.85714 213.35792 375.33817 213.17758 373.89964000000003 212.36393 C 372.44908000000004 211.55368 371.49901000000006 210.35487 371.04943000000003 208.76749 L 368.74533 200.63219 z M 359.72654 219.76852 L 370.326 209.79077 C 370.99864 211.43188 372.13410000000005 212.64314000000002 373.73238000000003 213.42454 C 375.34608000000003 214.21456 377.01277000000005 214.36605 378.73242000000005 213.87900000000002 C 380.59638000000007 213.35108000000002 382.00245000000007 212.23839 382.95061000000004 210.54093000000003 C 383.89877 208.84347000000002 384.11060000000003 207.06876000000003 383.58609 205.21683000000004 L 381.00611000000004 196.10746000000003 L 355.10302 203.44381000000004 L 355.3789 204.41788000000005 L 367.77126 200.90808000000004 L 369.98850999999996 208.73673000000005 L 359.42001999999997 218.68622000000005 z" stroke-linecap="round" />
</g>
    <g transform="matrix(1.96 0 0 1.96 -184.81 58)"  >
<path style="stroke: none; stroke-width: 1; stroke-dasharray: none; stroke-linecap: butt; stroke-dashoffset: 0; stroke-linejoin: miter; stroke-miterlimit: 10; fill: rgb(26,162,74); fill-rule: nonzero; opacity: 1;" vector-effect="non-scaling-stroke"  transform=" translate(-180.91, -264.56)" d="M 168.73325 270.74643 C 167.74328 267.37674 168.09269 264.15416 169.7815 261.07869999999997 C 171.45479 257.99476999999996 173.97628 255.95781999999997 177.34598 254.96784999999997 C 180.70368 253.98139999999998 183.92625999999998 254.33081999999996 187.01371 256.0161 C 190.09764 257.68939 192.13459 260.21088 193.12456 263.58058 C 193.63188 265.3074 193.7643 267.06619 193.52182 268.85697 L 194.58309 268.54518 C 194.76208 266.76003000000003 194.59968 265.01004 194.09589 263.29521 C 193.02841 259.6617 190.82859 256.94055 187.49643 255.13175999999999 C 184.17274 253.30745 180.69413 252.92904 177.06062 253.99651999999998 C 173.42711 255.06399999999996 170.70596 257.26381999999995 168.89717 260.59598 C 167.07286 263.91967 166.69445 267.39828 167.76192999999998 271.03179 C 168.26572 272.74662 169.07567999999998 274.30636 170.19179999999997 275.71103 L 171.23508999999999 275.40452999999997 C 170.07452999999998 274.02594999999997 169.24059 272.47324999999995 168.73326999999998 270.74643 z" stroke-linecap="round" />
</g>
    <g transform="matrix(1.96 0 0 1.96 -161.02 110.08)"  >
<path style="stroke: none; stroke-width: 1; stroke-dasharray: none; stroke-linecap: butt; stroke-dashoffset: 0; stroke-linejoin: miter; stroke-miterlimit: 10; fill: rgb(26,162,74); fill-rule: nonzero; opacity: 1;" vector-effect="non-scaling-stroke"  transform=" translate(-193.02, -291.09)" d="M 181.61099 298.83657 C 181.51922 298.70249 181.43260999999998 298.56487 181.35115 298.42373 C 180.46004 296.98895999999996 179.94568999999998 295.46293 179.80811 293.84564 C 179.65746 292.0101 180.04732 290.43318 180.97767 289.11488 L 181.80106999999998 289.68726000000004 C 180.98307999999997 290.83779000000004 180.65156 292.22333000000003 180.80651999999998 293.84387000000004 C 180.94516 295.26354000000003 181.40708999999998 296.61341000000004 182.19230999999996 297.89347000000004 C 183.38370999999995 299.78912 184.91541999999995 301.02021 186.78742999999997 301.58674 C 188.51339999999996 302.11691 190.04381999999998 301.96305 191.37869999999998 301.12516 C 193.8525 299.5835 194.24427999999997 296.31651999999997 192.55405 291.32421999999997 C 191.63725 288.6348 191.30792 286.36116999999996 191.56608 284.50330999999994 C 191.83455 282.63839999999993 192.67586 281.26743999999997 194.09 280.39044999999993 C 196.1648 279.1067299999999 198.23405 278.93243999999993 200.29776 279.86756999999994 C 201.99879 280.62684999999993 203.45233000000002 281.98715999999996 204.6584 283.94849999999997 C 206.11154 286.27083999999996 206.5785 288.60173 206.05927 290.94118 L 205.06328 290.71412 C 205.53043 288.65265 205.11507999999998 286.57419999999996 203.81724 284.47877 C 202.70349 282.69657 201.39709 281.46274 199.89803 280.77726 C 198.14814 279.99084 196.39241 280.14745 194.63084 281.24708000000004 C 192.18799 282.76756000000006 191.81167 286.02395 193.5019 291.01626000000005 C 194.4187 293.70568000000003 194.74287 295.98284000000007 194.4744 297.84776000000005 C 194.20593 299.71267000000006 193.35431 301.09069000000005 191.91954 301.98179000000005 C 190.323 302.96847 188.51217000000003 303.15522000000004 186.48705 302.54202000000004 C 184.52111000000002 301.94890000000004 182.89575000000002 300.71376000000004 181.61097 298.83658 z" stroke-linecap="round" />
</g>
    <g transform="matrix(1.96 0 0 1.96 -114.62 158.79)"  >
<path style="stroke: none; stroke-width: 1; stroke-dasharray: none; stroke-linecap: butt; stroke-dashoffset: 0; stroke-linejoin: miter; stroke-miterlimit: 10; fill: rgb(26,162,74); fill-rule: nonzero; opacity: 1;" vector-effect="non-scaling-stroke"  transform=" translate(-216.66, -315.9)" d="M 209.79481 326.19664 C 207.01861000000002 324.04545 205.41414 321.22894 204.9814 317.7471 C 204.53112000000002 314.26748 205.38157 311.13957 207.53276 308.36337 C 209.67629 305.59704999999997 212.49281 303.99258 215.9823 303.54996 C 219.46192000000002 303.09968 222.58983 303.95013 225.36603000000002 306.10132 C 226.78871000000004 307.20371 227.92627000000002 308.55161 228.77872000000002 310.14504 L 229.45623000000003 309.27069 C 228.55562000000003 307.71901 227.39892000000003 306.3958 225.98612000000003 305.30107 C 222.99257000000003 302.98145999999997 219.61570000000003 302.06459 215.85552000000004 302.55046 C 212.09311000000005 303.01878999999997 209.05211000000003 304.74973 206.73250000000004 307.74329 C 204.41289000000003 310.73684000000003 203.49602000000004 314.11371 203.98189000000005 317.87389 C 204.45022000000006 321.6363 206.18116000000006 324.6773 209.17472000000004 326.99691 C 210.58752000000004 328.09164000000004 212.15762000000004 328.88134 213.88501000000002 329.36602 L 214.55104000000003 328.50649 C 212.80290000000002 328.06899 211.21749000000003 327.29904999999997 209.79482000000002 326.19666 z" stroke-linecap="round" />
</g>
    <g transform="matrix(1.96 0 0 1.96 -26.11 191.94)"  >
<path style="stroke: none; stroke-width: 1; stroke-dasharray: none; stroke-linecap: butt; stroke-dashoffset: 0; stroke-linejoin: miter; stroke-miterlimit: 10; fill: rgb(26,162,74); fill-rule: nonzero; opacity: 1;" vector-effect="non-scaling-stroke"  transform=" translate(-261.72, -332.78)" d="M 256.68758 319.36789 L 253.11225000000002 346.05138999999997 L 254.11567000000002 346.18584 L 255.84358000000003 333.29005 L 266.00784000000004 334.65196000000003 L 266.13980000000004 333.66712 L 255.97554000000002 332.30521 L 257.55655 320.50575 L 270.19219000000004 322.1988 L 270.32664000000005 321.19538 z" stroke-linecap="round" />
</g>
    <g transform="matrix(1.96 0 0 1.96 16.96 195.08)"  >
<path style="stroke: none; stroke-width: 1; stroke-dasharray: none; stroke-linecap: butt; stroke-dashoffset: 0; stroke-linejoin: miter; stroke-miterlimit: 10; fill: rgb(26,162,74); fill-rule: nonzero; opacity: 1;" vector-effect="non-scaling-stroke"  transform=" translate(-283.63, -334.37)" d="M 282.98427 320.91563 L 281.97560999999996 321.00242000000003 L 284.28344999999996 347.82528 L 285.29211 347.73849 z" stroke-linecap="round" />
</g>
    <g transform="matrix(1.96 0 0 1.96 64.68 183.99)"  >
<path style="stroke: none; stroke-width: 1; stroke-dasharray: none; stroke-linecap: butt; stroke-dashoffset: 0; stroke-linejoin: miter; stroke-miterlimit: 10; fill: rgb(26,162,74); fill-rule: nonzero; opacity: 1;" vector-effect="non-scaling-stroke"  transform=" translate(-307.95, -328.72)" d="M 311.06921 313.35919 L 319.66817 337.8201 L 296.44219 318.50116 L 294.9565 319.02344000000005 L 303.885 344.42175000000003 L 304.84009 344.086 L 296.24733999999995 319.64278 L 319.44942 338.95025000000004 L 320.95279999999997 338.42175000000003 L 312.0243 313.02344000000005 z" stroke-linecap="round" />
</g>
    <g transform="matrix(1.96 0 0 1.96 117.3 156.75)"  >
<path style="stroke: none; stroke-width: 1; stroke-dasharray: none; stroke-linecap: butt; stroke-dashoffset: 0; stroke-linejoin: miter; stroke-miterlimit: 10; fill: rgb(26,162,74); fill-rule: nonzero; opacity: 1;" vector-effect="non-scaling-stroke"  transform=" translate(-334.76, -314.85)" d="M 338.47886 327.34219 L 322.80287 307.99966 L 326.85197999999997 304.71809 C 329.51255 302.56185 332.55291 301.65834 335.97306 302.00756 C 339.40108 302.36648 342.19714 303.88109000000003 344.36123999999995 306.55137 C 346.52533999999997 309.22165 347.42792999999995 312.2708 347.06900999999993 315.69882 C 346.70221999999995 319.11713000000003 345.18852999999996 321.9044 342.5279699999999 324.06063 z M 321.37893 307.85056 L 338.32977000000005 328.76613 L 343.16540000000003 324.84713 C 346.03959000000003 322.51777 347.67088 319.49844 348.05925 315.78915 C 348.44578 312.09744 347.47043 308.80963 345.13320000000004 305.92573 C 342.79597000000007 303.04183 339.78149 301.40661 336.08978 301.02008 C 332.38049 300.63171 329.08875 301.6022 326.21456 303.93156 z" stroke-linecap="round" />
</g>
    <g transform="matrix(1.96 0 0 1.96 163.74 106.52)"  >
<path style="stroke: none; stroke-width: 1; stroke-dasharray: none; stroke-linecap: butt; stroke-dashoffset: 0; stroke-linejoin: miter; stroke-miterlimit: 10; fill: rgb(26,162,74); fill-rule: nonzero; opacity: 1;" vector-effect="non-scaling-stroke"  transform=" translate(-358.42, -289.27)" d="M 343.38133 287.6863 L 365.93867 302.38182 L 373.45017 290.85181 L 372.60191000000003 290.29919 L 365.64303 300.98094000000003 L 355.58962 294.43140000000005 L 361.18743 285.83887000000004 L 360.35488 285.29649000000006 L 354.75707 293.8890200000001 L 344.7822 287.39065000000005 L 351.74108 276.7089 L 350.89282000000003 276.15628000000004 z" stroke-linecap="round" />
</g>
    <g transform="matrix(1.96 0 0 1.96 187.71 55.32)"  >
<path style="stroke: none; stroke-width: 1; stroke-dasharray: none; stroke-linecap: butt; stroke-dashoffset: 0; stroke-linejoin: miter; stroke-miterlimit: 10; fill: rgb(26,162,74); fill-rule: nonzero; opacity: 1;" vector-effect="non-scaling-stroke"  transform=" translate(-370.62, -263.18)" d="M 356.60425 265.92912 L 358.90835 257.79382 C 359.35793 256.20644 360.308 255.00762999999998 361.75856 254.19737999999998 C 363.20912 253.38712999999998 364.7341 253.2085 366.3335 253.66149 C 367.9329 254.11448 369.13171 255.06455 369.92994 256.51169999999996 C 370.74019 257.96225999999996 370.92052 259.48123 370.47094 261.06859999999995 L 368.16684 269.2039 z M 385.88092 257.63894 L 371.62351 260.57666 C 371.91134 258.82656000000003 371.57967 257.19978000000003 370.62852000000004 255.69632000000001 C 369.66875000000005 254.17743000000002 368.32904 253.17446 366.60938000000004 252.68742 C 364.74542 252.1595 362.96470000000005 252.36963 361.2672400000001 253.31779 C 359.5697800000001 254.26595 358.4587900000001 255.666 357.93428000000006 257.51794 L 355.3543000000001 266.62731 L 381.2573900000001 273.96366 L 381.5332700000001 272.98959 L 369.1409100000001 269.47979000000004 L 371.35816000000005 261.65114000000005 L 385.57439000000005 258.7212400000001 z" stroke-linecap="round" />
</g>
    <g transform="matrix(1.96 0 0 1.96 -0.47 -0.47)"  >
<path style="stroke: none; stroke-width: 1; stroke-dasharray: none; stroke-linecap: butt; stroke-dashoffset: 0; stroke-linejoin: miter; stroke-miterlimit: 10; fill: rgb(26,162,74); fill-rule: evenodd; opacity: 1;" vector-effect="non-scaling-stroke"  transform=" translate(-275, -235)" d="M 183.78317 143.78322 C 171.88225 155.68419 162.66782 169.35164 156.1399 184.78557 C 149.37993 200.76768 145.99995 217.50583 145.99995 235.00001 C 145.99995 252.49425 149.37993 269.23235999999997 156.1399 285.21435 C 162.66776000000002 300.64839 171.88218 314.31593000000004 183.78317 326.21698000000004 C 195.68384 338.11740000000003 209.35128 347.33167000000003 224.78552000000002 353.85978000000006 C 240.76776 360.61993000000007 257.5059 364.00001000000003 274.99996000000004 364.00001000000003 C 292.49426000000005 364.00001000000003 309.2324100000001 360.61993 325.21440000000007 353.85978000000006 C 340.64970000000005 347.33167000000003 354.3172400000001 338.11740000000003 366.2170300000001 326.21698000000004 C 378.1187100000001 314.31530000000004 387.3329800000001 300.64776000000006 393.8598300000001 285.21435 C 400.6199800000001 269.23173 404.0000600000001 252.49362000000002 404.0000600000001 235.00001000000003 C 404.0000600000001 217.50590000000003 400.61998000000006 200.76775000000004 393.8598300000001 184.78557000000004 C 387.3317200000001 169.35126000000002 378.1174500000001 155.68381000000005 366.2170300000001 143.78322000000003 C 354.3159800000001 131.88242000000002 340.64844000000005 122.66797000000003 325.21440000000007 116.13986000000003 C 309.2324100000001 109.37996000000003 292.4942700000001 106.00001000000003 274.99996000000004 106.00001000000003 C 257.50603000000007 106.00001000000003 240.76789000000005 109.37996000000003 224.78552000000005 116.13986000000003 C 209.35152000000005 122.66791000000003 195.68407000000005 131.88236000000003 183.78317000000004 143.78322000000003 z M 147.40716 235 C 147.40716 217.69619 150.75007 201.14077 157.43588 185.33377000000002 C 163.89274 170.06807 173.00684 156.54956 184.77819 144.77823 C 196.54962 133.00676 210.06813 123.89262000000001 225.33373 117.43583000000001 C 241.14061 110.75008000000001 257.69602 107.40721 274.99996 107.40721 C 292.30384 107.40721 308.85911999999996 110.75008000000001 324.66582 117.43583000000001 C 339.93213 123.89263000000001 353.45086 133.00676 365.22202 144.77823 C 376.99381 156.55 386.10781 170.06852 392.56404 185.33377000000002 C 399.24978999999996 201.14072000000002 402.59265999999997 217.69613 402.59265999999997 235 C 402.59265999999997 252.30381 399.24978999999996 268.85907 392.56404 284.66576 C 386.10717999999997 299.93269999999995 376.99316999999996 313.45142999999996 365.22202 325.22195999999997 C 353.4496 336.99438 339.93086999999997 346.10839 324.66582 352.56397999999996 C 308.85913 359.24972999999994 292.30384 362.59259999999995 274.99996 362.59259999999995 C 257.69608 362.59259999999995 241.14067 359.24972999999994 225.33373 352.56397999999996 C 210.06797 346.10711999999995 196.54945 336.99310999999994 184.77819 325.22195999999997 C 173.00672 313.45016999999996 163.89262 299.93143999999995 157.43588 284.66576 C 150.75007 268.85907 147.40716 252.30380999999997 147.40716 234.99999999999997 z" stroke-linecap="round" />
</g>
    <g transform="matrix(1.96 0 0 1.96 -0.45 -0.45)"  >
<path style="stroke: none; stroke-width: 1; stroke-dasharray: none; stroke-linecap: butt; stroke-dashoffset: 0; stroke-linejoin: miter; stroke-miterlimit: 10; fill: rgb(26,162,74); fill-rule: evenodd; opacity: 1;" vector-effect="non-scaling-stroke"  transform=" translate(-275, -235)" d="M 186.73226 146.73231 C 175.21484 158.24967 166.29778 171.47564 159.9811 186.41021 C 153.44076 201.87319 150.17058 218.06978 150.17058 235 C 150.17058 251.9299 153.44075 268.12637 159.9811 283.58941 C 166.29766 298.52405 175.21472 311.74989 186.73226 323.26693 C 198.25108 334.78587 211.47707 343.70314 226.41026 350.01876 C 241.87444 356.55948 258.07099999999997 359.82984 274.99995 359.82984 C 291.93054 359.82984 308.12704 356.55948 323.58945 350.01876 C 338.52535 343.70124999999996 351.75151 334.78398 363.26792 323.26693 C 374.78622 311.74863 383.70318 298.52278 390.0188 283.58941 C 396.55952 268.12574 399.82988 251.92926999999997 399.82988 235 C 399.82988 218.06941 396.55952 201.87281000000002 390.0188 186.41021 C 383.70192 171.47495 374.78465 158.24899 363.26697 146.73231 C 351.74993 135.21501 338.52409 126.29796000000002 323.58945 119.98115000000001 C 308.12704 113.44081000000001 291.93054 110.17063000000002 274.99995 110.17063000000002 C 258.0698 110.17063000000002 241.87324 113.44080000000001 226.41026000000002 119.98115000000001 C 211.47582000000003 126.29784000000001 198.24982000000003 135.21489000000003 186.73226000000003 146.73231 z M 152.63315 235 C 152.63315 218.40272 155.83844 202.52588 162.24901 187.36947 C 168.44091 172.72995 177.18242 159.76465000000002 188.47354 148.47358 C 199.76465000000002 137.18252999999999 212.72998 128.44102 227.36953 122.24905 C 242.52593 115.83847 258.40274 112.63319 274.99996 112.63319 C 291.59762 112.63319 307.47443 115.83848 322.63039 122.24905 C 337.26993 128.44101 350.23535 137.18252 361.52666 148.47358 C 372.81734 159.76417 381.55869 172.72947 387.75070999999997 187.36947 C 394.16153999999995 202.52594000000002 397.36695 218.40278 397.36695 235 C 397.36695 251.59633 394.16154 267.47311 387.75070999999997 282.63034 C 381.55994 297.26862 372.81827999999996 310.23404 361.52570999999995 321.52661 C 350.23629999999997 332.81665 337.27118999999993 341.55801 322.6303899999999 347.75066 C 307.4750599999999 354.16148999999996 291.5982499999999 357.3669 274.99995999999993 357.3669 C 258.40343999999993 357.3669 242.52662999999993 354.16149 227.36952999999994 347.75066 C 212.73088999999993 341.55989 199.76555999999994 332.81854 188.47353999999996 321.52661 C 177.18260999999995 310.2353 168.44109999999995 297.26988 162.24900999999994 282.63034 C 155.83842999999993 267.47375 152.63314999999994 251.59697 152.63314999999994 235 z" stroke-linecap="round" />
</g>
</g>
</g>
</svg>